<svg xmlns="http://www.w3.org/2000/svg" width="160" height="50" viewBox="0 0 224.489 73.195">
  <g id="Group_6607" data-name="Group 6607" transform="translate(-265.983 -410.107)">
    <path id="Path_14429" data-name="Path 14429" d="M284.21,435.925a2.663,2.663,0,0,0,1.791-.612,2.226,2.226,0,0,0,.718-1.777V418.165a2.143,2.143,0,0,0-.718-1.747,2.675,2.675,0,0,0-1.791-.6,2.6,2.6,0,0,0-1.773.6,2.165,2.165,0,0,0-.7,1.747v15.373a2.249,2.249,0,0,0,.7,1.777A2.589,2.589,0,0,0,284.21,435.925Z" transform="translate(41.959 15.203)" fill="#4b9ce2"/>
    <path id="Path_14430" data-name="Path 14430" d="M284.559,418.7a3.031,3.031,0,0,0,2.15-.74,2.5,2.5,0,0,0,.795-1.927,2.43,2.43,0,0,0-.813-1.916,3.566,3.566,0,0,0-4.282,0,2.456,2.456,0,0,0-.8,1.916,2.5,2.5,0,0,0,.8,1.927A3.025,3.025,0,0,0,284.559,418.7Z" transform="translate(41.61 8.778)" fill="#4b9ce2"/>
    <path id="Path_14431" data-name="Path 14431" d="M287.168,442.031a2.51,2.51,0,0,0,1.894-.714,2.573,2.573,0,0,0,.7-1.872V428.7L303.02,441.12a2.552,2.552,0,0,0,1.832.835,2.269,2.269,0,0,0,1.652-.7,2.216,2.216,0,0,0,.7-1.615,2.3,2.3,0,0,0-.795-1.711L295.017,427.34l10.71-9.794a2.272,2.272,0,0,0,.8-1.674,2.38,2.38,0,0,0-2.308-2.311,2.247,2.247,0,0,0-1.634.718l-12.823,12.028V416.07a2.491,2.491,0,0,0-.7-1.85,2.541,2.541,0,0,0-1.894-.7,2.394,2.394,0,0,0-2.546,2.546v23.376a2.572,2.572,0,0,0,.7,1.872A2.452,2.452,0,0,0,287.168,442.031Z" transform="translate(49.63 9.098)" fill="#4b9ce2"/>
    <path id="Path_14432" data-name="Path 14432" d="M294.492,418.7a3.034,3.034,0,0,0,2.154-.74,2.51,2.51,0,0,0,.795-1.927,2.434,2.434,0,0,0-.817-1.916,3.566,3.566,0,0,0-4.282,0,2.453,2.453,0,0,0-.795,1.916,2.5,2.5,0,0,0,.795,1.927A3.031,3.031,0,0,0,294.492,418.7Z" transform="translate(68.07 8.778)" fill="#4b9ce2"/>
    <path id="Path_14433" data-name="Path 14433" d="M294.146,415.817a2.6,2.6,0,0,0-1.769.6,2.167,2.167,0,0,0-.7,1.747v15.373a2.251,2.251,0,0,0,.7,1.777,2.586,2.586,0,0,0,1.769.612,2.68,2.68,0,0,0,1.795-.612,2.224,2.224,0,0,0,.714-1.777V418.165a2.141,2.141,0,0,0-.714-1.747A2.692,2.692,0,0,0,294.146,415.817Z" transform="translate(68.416 15.203)" fill="#4b9ce2"/>
    <path id="Path_14434" data-name="Path 14434" d="M315.824,442.031a2.294,2.294,0,0,0,1.754-.714,2.622,2.622,0,0,0,.678-1.872V416.07a2.59,2.59,0,0,0-.659-1.85,2.307,2.307,0,0,0-1.773-.7,2.255,2.255,0,0,0-1.733.7,2.588,2.588,0,0,0-.656,1.85v17.2l-14.5-18.838a2.239,2.239,0,0,0-1.912-.912,2.375,2.375,0,0,0-1.791.7,2.538,2.538,0,0,0-.678,1.85v23.376a2.734,2.734,0,0,0,.637,1.872,2.507,2.507,0,0,0,3.505,0,2.715,2.715,0,0,0,.638-1.872V422.2l14.534,18.915A2.283,2.283,0,0,0,315.824,442.031Z" transform="translate(76.087 9.098)" fill="#4b9ce2"/>
    <path id="Path_14435" data-name="Path 14435" d="M325.619,438.39a2.661,2.661,0,0,0,.2-1.058,2.287,2.287,0,0,0-.48-1.473,1.43,1.43,0,0,0-1.154-.6,2.215,2.215,0,0,0-.835.161,5.2,5.2,0,0,0-.8.4,15.293,15.293,0,0,1-3.282,1.754,9.408,9.408,0,0,1-3.165.516,7.655,7.655,0,0,1-6.274-2.59q-2.131-2.588-2.132-7.648,0-5.016,2.132-7.6a7.653,7.653,0,0,1,6.274-2.586,10.1,10.1,0,0,1,3.263.5,11.61,11.61,0,0,1,3.183,1.773,2.97,2.97,0,0,0,1.634.553,1.431,1.431,0,0,0,1.154-.6,2.272,2.272,0,0,0,.48-1.472,2.588,2.588,0,0,0-.2-1.073,2.273,2.273,0,0,0-.718-.839,12.832,12.832,0,0,0-4.1-2.249,15.311,15.311,0,0,0-4.937-.776,14.043,14.043,0,0,0-7.11,1.751,11.711,11.711,0,0,0-4.677,5,18.668,18.668,0,0,0,0,15.274,11.661,11.661,0,0,0,4.677,5.018,14.005,14.005,0,0,0,7.11,1.751,15.311,15.311,0,0,0,4.937-.776,12.76,12.76,0,0,0,4.1-2.249A2.251,2.251,0,0,0,325.619,438.39Z" transform="translate(97.078 8.98)" fill="#4b9ce2"/>
    <path id="Path_14436" data-name="Path 14436" d="M312.75,418.7a3.031,3.031,0,0,0,2.15-.74,2.5,2.5,0,0,0,.795-1.927,2.422,2.422,0,0,0-.817-1.916,3.566,3.566,0,0,0-4.282,0,2.465,2.465,0,0,0-.795,1.916,2.51,2.51,0,0,0,.795,1.927A3.04,3.04,0,0,0,312.75,418.7Z" transform="translate(116.676 8.778)" fill="#4b9ce2"/>
    <path id="Path_14437" data-name="Path 14437" d="M312.4,415.817a2.591,2.591,0,0,0-1.769.6,2.158,2.158,0,0,0-.7,1.747v15.373a2.241,2.241,0,0,0,.7,1.777,2.579,2.579,0,0,0,1.769.612,2.67,2.67,0,0,0,1.791-.612,2.212,2.212,0,0,0,.714-1.777V418.165a2.13,2.13,0,0,0-.714-1.747A2.682,2.682,0,0,0,312.4,415.817Z" transform="translate(117.022 15.203)" fill="#4b9ce2"/>
    <path id="Path_14438" data-name="Path 14438" d="M318.228,441.653h14.38a2.749,2.749,0,0,0,1.787-.52,1.786,1.786,0,0,0,.637-1.472,1.881,1.881,0,0,0-.637-1.531,2.692,2.692,0,0,0-1.787-.539H320.777v-8.2h11.032a2.774,2.774,0,0,0,1.791-.516,1.8,1.8,0,0,0,.634-1.476,1.841,1.841,0,0,0-.634-1.513,2.773,2.773,0,0,0-1.791-.517H320.777v-7.728h11.831a2.691,2.691,0,0,0,1.787-.535,1.891,1.891,0,0,0,.637-1.531,1.793,1.793,0,0,0-.637-1.476,2.77,2.77,0,0,0-1.787-.516h-14.38a2.489,2.489,0,0,0-1.809.637,2.371,2.371,0,0,0-.659,1.787v23.218a2.369,2.369,0,0,0,.659,1.791A2.492,2.492,0,0,0,318.228,441.653Z" transform="translate(132.54 9.241)" fill="#4b9ce2"/>
    <path id="Path_14439" data-name="Path 14439" d="M324.594,441.8h13.9c1.593,0,2.392-.707,2.392-2.114s-.8-2.106-2.392-2.106H327.3V416.07a2.505,2.505,0,0,0-.7-1.85,2.541,2.541,0,0,0-1.894-.7,2.4,2.4,0,0,0-2.549,2.546v23.339a2.357,2.357,0,0,0,.641,1.747A2.418,2.418,0,0,0,324.594,441.8Z" transform="translate(149.59 9.098)" fill="#4b9ce2"/>
    <path id="Path_14440" data-name="Path 14440" d="M312.275,438.027c-.018-.374-.037-.733-.037-.872v-6.542a6.692,6.692,0,0,0-6.655-6.663,6.564,6.564,0,0,0-3.531,1.018,6.578,6.578,0,0,0-4.926-2.234H297.1a6.342,6.342,0,0,0-2.26.417l-.26-6.718a6.592,6.592,0,0,0-2.154-4.593,6.516,6.516,0,0,0-4.773-1.725,6.647,6.647,0,0,0-6.326,6.509v1.253a6.675,6.675,0,0,0-12.611,4.139l3.216,15.259-.121.04a7.957,7.957,0,0,0-4.776,6.366l-.912,7.6a18.99,18.99,0,0,0,6.564,16.841l4,3.447V480.9a2.406,2.406,0,0,0,4.813,0V470.4a2.331,2.331,0,0,0-.864-1.857l-4.78-4.121a14.2,14.2,0,0,1-4.846-12.516l.908-7.6A3.13,3.13,0,0,1,275,441.6l9,0a1.571,1.571,0,0,1,1.216.557,1.737,1.737,0,0,1,.538,1.224,1.778,1.778,0,0,1-1.721,1.78l-5.186.154a2.52,2.52,0,0,0-2.362,2.168l-.462,4.058a2.461,2.461,0,0,0,2.278,2.623,2.5,2.5,0,0,0,2.6-2.117l.2-1.736a9.684,9.684,0,0,1,5.564,9.241,2.576,2.576,0,0,0,2.128,2.667l.293.011a2.466,2.466,0,0,0,2.388-2.2,14.313,14.313,0,0,0-3.978-11,6.738,6.738,0,0,0,3.154-5.652,6.564,6.564,0,0,0-4.5-6.245V416.706a1.807,1.807,0,0,1,1.78-1.784h.007a1.765,1.765,0,0,1,1.765,1.652l.762,21.8a6.689,6.689,0,0,0,6.663,6.662,6.581,6.581,0,0,0,4.941-2.245,6.91,6.91,0,0,0,3.527,1.029,7.059,7.059,0,0,0,2.223-.407,82.785,82.785,0,0,1-.077,12.68c-.41,4.227-1.769,11.384-6.249,11.816a2.4,2.4,0,0,0-2.194,2.4V480.8a2.408,2.408,0,0,0,4.817,0V472.3c4.7-1.619,7.527-6.893,8.417-15.688a87.538,87.538,0,0,0-.223-17.523C312.312,438.87,312.294,438.441,312.275,438.027Zm-6.622.886a1.775,1.775,0,0,1-1.776-1.773v-6.523a1.776,1.776,0,1,1,3.553,0v6.523A1.775,1.775,0,0,1,305.653,438.913ZM298.91,429.4v8.97a1.776,1.776,0,1,1-3.553,0V429.4a1.776,1.776,0,1,1,3.553,0Zm-17.841,7.1H276.86l-3.267-15.541a1.765,1.765,0,0,1,.256-1.333,1.8,1.8,0,0,1,1.165-.769,1.686,1.686,0,0,1,2.018,1.212Z" transform="translate(0)" fill="#4b9ce2"/>
    <path id="Path_14441" data-name="Path 14441" d="M290.259,423.923h-6.707a1.7,1.7,0,0,0-1.242.439,1.624,1.624,0,0,0-.451,1.223v15.951a1.751,1.751,0,0,0,.476,1.293,1.7,1.7,0,0,0,1.267.476,1.644,1.644,0,0,0,1.773-1.769v-5.864h4.882a6.91,6.91,0,0,0,4.8-1.549,5.557,5.557,0,0,0,1.718-4.34,5.493,5.493,0,0,0-1.718-4.319A6.943,6.943,0,0,0,290.259,423.923Zm-.436,9.051h-4.446v-6.322h4.446q3.626,0,3.626,3.161T289.823,432.974Z" transform="translate(42.275 36.788)" fill="#898989"/>
    <path id="Path_14442" data-name="Path 14442" d="M299.67,437.146a6.106,6.106,0,0,0-1.172-1.363,3.464,3.464,0,0,0-1.392-.681,5.993,5.993,0,0,0,3.586-1.839,5.315,5.315,0,0,0,1.267-3.666,5.235,5.235,0,0,0-1.7-4.212,7.448,7.448,0,0,0-4.978-1.461h-6.813a1.7,1.7,0,0,0-1.242.439,1.623,1.623,0,0,0-.451,1.223v15.951a1.75,1.75,0,0,0,.476,1.293,1.7,1.7,0,0,0,1.267.476,1.653,1.653,0,0,0,1.256-.476,1.773,1.773,0,0,0,.461-1.293v-6.11h2.674a3.192,3.192,0,0,1,1.6.355,3.589,3.589,0,0,1,1.157,1.227l3.626,5.509a1.754,1.754,0,0,0,1.5.817,1.837,1.837,0,0,0,1.187-.406,1.281,1.281,0,0,0,.506-1.037,1.692,1.692,0,0,0-.33-.952Zm-4.879-4.417h-4.582v-6.076h4.582a4.735,4.735,0,0,1,2.916.721,2.734,2.734,0,0,1,.927,2.3,2.786,2.786,0,0,1-.927,2.3A4.6,4.6,0,0,1,294.791,432.728Z" transform="translate(55.358 36.788)" fill="#898989"/>
    <path id="Path_14443" data-name="Path 14443" d="M305.771,425.055a9.492,9.492,0,0,0-4.864-1.2,9.589,9.589,0,0,0-4.883,1.2,7.933,7.933,0,0,0-3.176,3.421,12.863,12.863,0,0,0,.015,10.453,8.006,8.006,0,0,0,3.176,3.439,10.429,10.429,0,0,0,9.706,0,8.027,8.027,0,0,0,3.176-3.439,12.824,12.824,0,0,0,.015-10.453A7.953,7.953,0,0,0,305.771,425.055Zm-.733,13.874a5.617,5.617,0,0,1-8.292,0,9.949,9.949,0,0,1,0-10.453,5.647,5.647,0,0,1,8.292,0,9.949,9.949,0,0,1,0,10.453Z" transform="translate(68.6 36.612)" fill="#898989"/>
    <path id="Path_14444" data-name="Path 14444" d="M303.092,423.886a1.644,1.644,0,0,0-1.747,1.744v12.19a2.937,2.937,0,0,1-.571,1.989,2.27,2.27,0,0,1-1.689.71l-.872.051a1.675,1.675,0,0,0-1.081.4,1.352,1.352,0,0,0-.341.993c0,1.018.7,1.5,2.1,1.443l.872-.051q5.1-.385,5.1-5.534v-12.19a1.7,1.7,0,0,0-.48-1.267A1.737,1.737,0,0,0,303.092,423.886Z" transform="translate(82.036 36.689)" fill="#898989"/>
    <path id="Path_14445" data-name="Path 14445" d="M311.661,426.7a1.845,1.845,0,0,0,1.227-.366,1.3,1.3,0,0,0,.436-1.048,1.231,1.231,0,0,0-.436-1.011,1.883,1.883,0,0,0-1.227-.355h-9.842a1.7,1.7,0,0,0-1.242.439,1.623,1.623,0,0,0-.45,1.223v15.9a1.626,1.626,0,0,0,.45,1.227,1.716,1.716,0,0,0,1.242.436h9.842a1.885,1.885,0,0,0,1.227-.355,1.224,1.224,0,0,0,.436-1.007,1.292,1.292,0,0,0-.436-1.048,1.845,1.845,0,0,0-1.227-.37h-8.1v-5.619h7.553a1.923,1.923,0,0,0,1.231-.352,1.235,1.235,0,0,0,.432-1.011,1.268,1.268,0,0,0-.432-1.037,1.923,1.923,0,0,0-1.231-.352h-7.553V426.7Z" transform="translate(90.916 36.788)" fill="#898989"/>
    <path id="Path_14446" data-name="Path 14446" d="M313.684,426.718a6.926,6.926,0,0,1,2.234.341,7.944,7.944,0,0,1,2.183,1.216,2.02,2.02,0,0,0,1.117.377.989.989,0,0,0,.791-.407,1.579,1.579,0,0,0,.326-1.011,1.776,1.776,0,0,0-.135-.736,1.581,1.581,0,0,0-.491-.571,8.782,8.782,0,0,0-2.806-1.542,10.635,10.635,0,0,0-3.384-.528,9.586,9.586,0,0,0-4.864,1.2,8,8,0,0,0-3.2,3.421,12.786,12.786,0,0,0,0,10.453,7.983,7.983,0,0,0,3.2,3.439,9.586,9.586,0,0,0,4.864,1.2,10.529,10.529,0,0,0,3.384-.531,8.781,8.781,0,0,0,2.806-1.542,1.524,1.524,0,0,0,.491-.582,1.806,1.806,0,0,0,.135-.725,1.568,1.568,0,0,0-.326-1.007.983.983,0,0,0-.791-.41,1.5,1.5,0,0,0-.571.11,3.768,3.768,0,0,0-.546.271,10.539,10.539,0,0,1-2.249,1.2,6.4,6.4,0,0,1-2.168.355,5.233,5.233,0,0,1-4.293-1.777,10.08,10.08,0,0,1,0-10.443A5.24,5.24,0,0,1,313.684,426.718Z" transform="translate(102.116 36.612)" fill="#898989"/>
    <path id="Path_14447" data-name="Path 14447" d="M323.98,423.923H310.538q-1.631,0-1.634,1.447t1.634,1.443H315.5v14.724a1.719,1.719,0,0,0,.476,1.267,1.748,1.748,0,0,0,1.293.476,1.638,1.638,0,0,0,1.747-1.743V426.813h4.963q1.637,0,1.637-1.443T323.98,423.923Z" transform="translate(114.287 36.788)" fill="#898989"/>
  </g>
</svg>
